<svg id="Layer_1" data-name="Layer 1" xmlns="http://www.w3.org/2000/svg" viewBox="0 0 792 612"><title>AURA-CRATE_Logo</title><path d="M441.22,320.9c-.63-2.32-2.69-3.29-4.45-4.42-1.16-.74-.6,1-1.29,1.29-1.77-3.54-5.62-4.35-8.51-6.44a1.72,1.72,0,0,0-1.27-.24,6.75,6.75,0,0,1-6.26-1.53c1.25,3.58,4.68,5.4,7,8.7-2.51-.72-3.47-2.7-5.6-4,.78,1.69,0,1.82-.91,2.59-1.5,1.24-2.51,1.53-4.11.79a.63.63,0,0,0-.87.48c-.12.52.34.45.65.62.87.48,1.61,1.23,1.14,2.31-.75,1.73.44,1.72,1.47,1.7.75,0,1.55,0,1.57.8.09,2.6,2.38,3.32,3.84,4.74a5.17,5.17,0,0,0,1,.58c.63.38,1.59.79.92,1.64s-1.31-.1-1.82-.52c-1.5-1.22-2.76-2.73-4.45-3.72-.39-.23-.81-.46-1.21,0a1,1,0,0,0,0,1.25c.32.61.63.83,1.05,0a.34.34,0,0,1,.64.13c-.32,3,2.51,3.71,3.88,5.47a7.06,7.06,0,0,1,1.86,2.63c-1.59-.86-2.38-2-3.45-2.88-.42-.33-.77-1.88-1.79-.16-.58,1-1.1-1.14-2.09-.89-.8,1.34.72,2.1.87,3.16-.53.64-1-.39-1.49.08-.14,1.05,1.44,1.2,1.35,2.28-.82.62-1.22-.87-2.05-.33-.46,2.53,1.65,4.06,2.75,6.35-1.52-.32-2-1.38-2.61-2.2A14,14,0,0,0,412,336.5a3.91,3.91,0,0,1-2.36-3.74c0-2-2.63-4.51-4.6-4.61-.8,0-.94-.55-1.16-1.12a15.21,15.21,0,0,0-4.52-6.45,9.13,9.13,0,0,1-2.5-4.26c-.68-2.6-2.44-4.19-3.92-6.1-.42-.54-1.4-1-.72-1.85s1.09.52,1.76.4c-.63-1.9-3.33-4.2-5.07-4.12-1,0-.89-.59-.95-1.06-.07-.63-.1-1.31-.82-1.39s-.83.73-1,1.24.27,1.13-.56,1.21a1.07,1.07,0,0,1-1.25-1c-.12-1.13-1.1-1.29-1.93-1.85-.39.64.72,1,.21,1.55-.76.11-1-.72-1.64-.93s-1.06-.45-2.12-.91c2.16,3,5.16,4.56,7.07,7.86-2.43-1-4.6-.91-5.11-3.89-.45-2.61-4.26-3.7-6.26-2-.68.59-1.86-.57-2.25,1.31-.52,2.48,1.13,3.51,2.16,5.23-1.4.42-1.89-1.12-3-1.17-1.53-.07-1.88.83-2,2.34.9-2.46,2-2.33,3.4-.68.3.36,1.1.32,1.68.41a2.93,2.93,0,0,1,2.51,2.24,2.26,2.26,0,0,1-.08.84c-2.11-1.15-2.27,2-4.53,1.81-4.4-.42-4.52,0-5.51,4.54-.62,2.82-1.69,5.66-.07,8.59-3.4-3.41-3-7.39-1.93-11.53-2.62,4.3-5.18,8.34-8.93,11.65.15,0-.09,0-.09,0,.19-2.69-.14-5.38-.17-8.06,0-2,1.89-3.07,3.39-4.19.7-.52,1.8-1,1.52-2-.21-.71-1.4-.69-2.17-.92a1.58,1.58,0,0,0-2,1,14.89,14.89,0,0,0-2,5.19c-.14,1.54-2.41,2.12-1.32,3.89-4.09-.36-4.05,2.53-4,5.73a7.82,7.82,0,0,1-.39-8.81,65.39,65.39,0,0,0,3.08-6.9c1-2.49,3-4.54,4.33-6.92,2.08-3.73,4.93-7,7-10.72-.7-.39-2,2.09-2.09-.67,0-.86-1.49-1.33-2.56-1a2.12,2.12,0,0,1-2.5-1c-.77-.92-.45-1.45.68-1.68.38-.08,1.1.76,1.12-.35,0-.58.11-1.26-.66-1.5s-.95-.51-.48-1.11c.35-.44.79-.35,1.15,0,.56.57,1.25.74,1.75.11.65-.8-.32-1.13-.7-1.6-1.45-1.77-2.2-1.77-3.41.1-.25.4-.41.6-.81.38-2-1.08-4.24-1.74-5.24-4.05-.13-.31-.16-.83-.7-.63-.79.29,0,.67,0,.92a6.08,6.08,0,0,1-1,2.23c-.58-2.31-2.28-4.13-2.71-6.45s-.53-2.56-2.7-1.68c-.39.16-.66.25-1,0a5.71,5.71,0,0,0-3.84-.86c-1.22,0-1.69-.38-1.8-1.84-.23-3.06-2.1-5.67-3-8.58-.08-.26-.31-.5-.63-.07-.78,1.07-1,0-.88-.37.46-1.25,0-2.62.46-4,1,.76.34,2.17,1.15,2.67,2.92,1.77,2.07,5.1,3.23,7.59,1.51,3.23,2.08,3.76,5.72,3.12.55-.1,1.23.09,1.64-.69-.89-.95-2.09-.41-3.11-.62-.46-.1-.94-.22-.92-.78s.52-.68,1-.6a7.09,7.09,0,0,0,3.29-.46c.55-.17,1.3-.19,1.25-1a2.65,2.65,0,0,0-1.56-2.28c-.66-.34-1-.37-1.52.45-.29.5-1.07,1.53-2,.83-1.14-.85.08-1.41.47-2a1.65,1.65,0,0,0-.14-2.39,24.53,24.53,0,0,1-3.27-4.13c-.79-1.31-1.36-.91-1.72.29-.19.63-.39,1.17-1.19,1s-.76-.82-.41-1.39c.65-1.07-.28-1.59-.78-2.71-.5,1.45-.72,2.05-2,.77s-2.14-2.8-3.37-4.29c-.65.78-.37,1.64-.55,2.37-.31,1.25-1.23,1.27-2.25,1.33s-1.47-.1-1.26-1.2c.13-.66-.43-.62-.84-.77s-.79-.73-.11-.87c1.25-.26.68-.5.15-1-.37-.33-.1-.84-.09-1.28,0-.77.84-1.68,0-2.27s-1.45.4-2.42.93c.12-1.59-.42-3,1-3.52-1.57-3.09-5.4-2.78-7.37-5.26a7.14,7.14,0,0,1-1.32-1.77c-.4-1.14-.44-2.21-2.29-1.83-.73.15-1.39-1.36-1.6-2.4s.36-1.19,1.17-1.15c.4,0,.78-.08.76-.58a1.21,1.21,0,0,0-1-1.29c-1.11-.2-1.2-.58-.74-1.69.6-1.45-.89-2.56-1.35-3.83-.7-2-.49-3,1.44-3.76,5.86-2.41,11.81-1.95,17.81-.79,1.17.22,2.36.36,3.54.55,2.94.47,3.29.24,3.1-2.79-.23-3.63-.61-7.26-1-10.88a15.06,15.06,0,0,1,2.84-10.49c1.26-1.83,2.64-3.58,3.81-5.47a26.45,26.45,0,0,0,3.08-9.17c.57-3,1.93-5.85,2.37-8.9.25-1.7,1.83-3.58-.14-5.27a.43.43,0,0,1,0-.4c2.79-1.63,1.87-4.8,3-7.12.48-1,.29-2.78,1.78-2.73,1.67.06,1.11,1.85,1.34,2.89.82,3.81-.14,7.55-.69,11.3-.08.53-.77,1.26,0,1.56s.8-.58,1-1.13a99.25,99.25,0,0,0,4.94-17.82c.35-2.16.68-4.31,1.18-6.45,1-4.44-.2-9,.24-13.43.11-1.15-.21-2.84,1.07-3.14s1.93,1.32,2.55,2.39c2.28,4,1.93,8.37,2,12.66.1,4.87-1.14,9.61-2,14.37a20.39,20.39,0,0,1-1.45,3.47,5.64,5.64,0,0,0-.52,3.6c1.69-2.79,4.06-4.56,3.81-7.74a1.35,1.35,0,0,1,.68-1.51c2.84-1.44,3.27-3.88,2.91-6.74-.32-2.6-1.16-5.16-.79-7.85,1.26,2.58.81,5.49,1.74,8.25,2.41-2.51.32-5.77,1.47-8.69,1.12,1.07.31,2.32.93,3.33,1.81-3,2.08-6.41,3.6-9.38a20.15,20.15,0,0,0,1.9-6.84c.11-.94.4-2.09,1.58-2.17s1.31,1.09,1.63,1.88a11.7,11.7,0,0,1,.72,6.58,89.62,89.62,0,0,1-2,10.3,10.46,10.46,0,0,0-.27,4.27c3.39-4.83,2.19-10.3,3.71-15.6.84,1.7,0,3.26,1.11,4.54,1.34-2.07.37-4.35,1.05-6.35.39-1.15,0-3,1.42-3.22s2.51,1.32,3.22,2.68a11.45,11.45,0,0,1,1,4.46c.75-.06.82-.59,1.08-.91.62-.73,1.39-1.39,2.3-.87,1.15.66-.29,1.18-.31,1.83s-.17,1-.19,1.55-.52,1.24.08,1.67a1,1,0,0,0,1.36-.41c.34-.56,1.16-1.14.24-1.91-.3-.25-.78-.48.09-.81,2.24-.87,4.45-1.85,5.29-4.44a4.57,4.57,0,0,1,.81-1.33c.35-.45.73-1.14,1.41-.83s.39,1,.14,1.54a14,14,0,0,1-1.47,3,13.87,13.87,0,0,0-2.12,4.27l1.3-1.12c-.87,4.3-2.85,8.4-1.65,13.51,1.47-3.87,2.06-7.54,4.39-10.42a4.32,4.32,0,0,1,1.82-2.22v0l.41-.37v-.11c.79-.12,1.11-.95,2.49-1.68-2.37,2.92-.89,4.52.78,6.07.58.54.23,1.1.08,1.65-.27,1-.2,1.88,1.06,2.38.39-1.12-.5-3,2.16-2.63,1.13.16,1.93-2.28,2.84-3.54.91.59-.33,1.42.53,1.91a3.21,3.21,0,0,0,2.08-1.79,4.51,4.51,0,0,1,1.4-1.71c.57-.38,1.26-.85,1.82-.37s-.19,1.06-.31,1.61c0,.21-.24.39-.29.6-.61,2.33-1.42,4.09-4.44,4.28-1.79.11-2.6,2.26-2.87,4.08-.13.9-.06,1.29-1.33,1.41a5.31,5.31,0,0,0-3.87,3,28.69,28.69,0,0,1-2.93,4.43c-.5.64-1.17,1.38-.21,2.33s.19,1.68-.36,2.39-1.25.74-1.79-.11c-.32-.5-.6-.34-.82.06-.38.71-1.1,1.3-1,2.18.06.65.7.73,1.21.75A55.87,55.87,0,0,1,409,173.5l.22,0c3.44.73,3.37.71,4.41-2.77a33.31,33.31,0,0,1,1.88-4.49c.35-.76,1-.9,1.61-.26s1.13,2,.55,2c-2,.06-1.18,1.81-1.89,2.57a5.83,5.83,0,0,0-1.29,2.82c-.12.55-.71,1.35.27,1.73.76.29,1.29-.24,1.72-.76a24.67,24.67,0,0,0,3-3.83c1.57-2.94,3.57-5.59,4.79-8.82s2.81-6.3,3.77-9.64c.18-.62.84-1.4-.19-2a.47.47,0,0,1-.19-.75c3-3.64,1.85-8.17,2.65-12.28.13-.65.12-1.33.2-2,0-.1.21-.18.53-.44a25,25,0,0,1,1.06,11c-.44,3.85-.95,7.68-2.81,11.21-.52,1-1.44,2.67,0,3.41,1.62.83,2.27-1,2.89-2.08a54.39,54.39,0,0,0,7.26-18.89c.28-1.73.85-3.54-.57-5.12-.13-.14-.23-.56-.17-.6,2.3-1.43.51-3.82,1.3-5.62,2.51,2.2,2.73,4.86,2.2,16.38-.28,6-3.57,10.62-6,15.75,2.1.13,2.53-1.59,3.5-2.82a48.66,48.66,0,0,0,7.41-13.85c1.37-3.87,1.6-7.87,2-11.87.06-.57-.19-1.32.59-1.49s1,.5,1.33,1a14.51,14.51,0,0,1,1.88,11.17,29.38,29.38,0,0,1-3,8.84c-.9,1.51.71,3.08-.34,4.61a6.21,6.21,0,0,0,3-2.49c2.54-3.31,5.35-6.41,7.3-10.15.4-.76.8-2.17,2-1.64.9.41.32,1.62.12,2.46a34.08,34.08,0,0,1-3.5,8,5.86,5.86,0,0,0-.68,3.58c.31,3-1.54,5.5-2.8,8.1a12.28,12.28,0,0,1-.74,1.12c-1.75,2.8-1.72,2.77.7,4.95a8.71,8.71,0,0,1,2.92,3.88c.35,1.19.33,2.15-.84,2.93-.58.38-1.62.76-.45,1.8.5.45-.25.78-.64.73-2.91-.34-4.58,1.79-6.6,3.23-3.77,2.69-6.57,6.45-10.29,9.22-1.15.85-1.74,1.74.42,2.28,1.63.41,1.89,2,1,3.64s-2.48,2.49-4.35,3.46c2.88.07,6.17-2.73,6.4-5.11a.65.65,0,0,1,0-.22c.42-.77-1.68-.95-.52-1.67a8.18,8.18,0,0,1,3.22-.85c.81-.11,1.19.51.58,1.1a11.79,11.79,0,0,0-2.25,3.3,10.71,10.71,0,0,1-3.17,3.45c4,0,7.48,0,10.93,0,1.59,0,1.94-1.4,2.56-2.48s1-3,2.18-2.53c.76.27-.64,1.93-1.13,2.93s-1.59,1.83.38,2.39c.7.2.45.86.26,1.34-.48,1.23-1.4,2.47-2.6,2.39-2.85-.2-4,2.28-6.06,3.29-.18.09-.37.43-.12.53,1.8.72.2,1.1-.19,1.36-3.26,2.09-6.55,4.12-9.83,6.17-.13.08-.37.11-.39.2-.28,1.79-1.61,1.24-2.72,1.26-3.65.06-5.49,3.38-8.59,4.45.49,1,1.06.31,1.48.47a1.76,1.76,0,0,1,1.22,1.44c0,.71-.74.63-1.21.63-2.81,0-5,1.48-7.14,3,.74.47,1.81,0,3.25.49-2.52,1-4.74,1.89-6.9,1.51-1.9-.33-2.75.17-3.54,1.65-.3.56-.82,1-1.15,1.69,3.68-1.62,7.74-1.93,11.35-3.65a1.65,1.65,0,0,0,.64-.61c1.27-2.06,2.87-2.23,4.9-.91-1.35,2.28-4.32,1.24-6.14,3.48,2.58-.22,4.8-.37,7-.59,1.63-.17,3.25-.43,4.87-.63.51-.07,1.18-.18,1.19.57,0,.52-.57.61-1,.65-2.15.17-4.31.31-6.46.48s-4.05.33-5.58,1.89c-.79.81-2.08.19-2.87,1,.5,1.07,1.7.24,2.53,1.15H415.2l0,.48,8.08,1c-.82,1.12-1.9.32-2.83,1.07a24,24,0,0,1,8.58,1.11,33.14,33.14,0,0,1-8.89-.07c1.74.38,1.77,2.37,3.29,3.11A29.45,29.45,0,0,0,434,245c.29,0,.76,0,.85-.12,1.26-2.19,2.41-.52,3.52.12.81.47.37,1.18.05,1.77s-.56,1.51-1.6,1.14c-6.81-2.47-13.91-1.74-20.9-1.72a100.25,100.25,0,0,1-12.2-1c-.73-.09-1.28-.27-1.4-1.13-.1-.66-.57-.93-1.13-.5s-1.88.42-2,1.28,1.09,1.08,1.79,1.36c2.13.84,4.13,2.1,6.56,2.07.65,0,1.54.25,1.53,1,0,1.3-1,.24-1.5.46-2.64,1.14-5.23-.6-7.88-.12-.93.17-1.94,0-2.64.86.14.13.25.3.34.3,1.24-.07,2.94.05,2.94,1.3,0,1.55-1.79,1.05-2.9,1.07a6.53,6.53,0,0,0-2.8.31,3.53,3.53,0,0,0,2.51,1.69,53.94,53.94,0,0,1,6,1.75c1.7.62,2.82.63,2.66-1.62.63,0,.7,1.94,1.58.29a1.78,1.78,0,0,1,2.32-.82c1.05.4,1.29,1.31,1.46,2.32.13.78-1,1.74,0,2.21a6.35,6.35,0,0,0,3.44.72c2.37-.24,4.77-.25,7.11-.65,1.49-.25,2.12.78,3.1,1.4-2.41,1.78-4.8-1.55-7.35,0,1.22,1,3,.53,4,1.5-.16.56-.46.59-.75.52-4.64-1-9.46-1.06-14-2.77a18.1,18.1,0,0,0-3.51-.64c-.56-.09-1.3-.43-1.43.48-.1.7.5,1,1.14,1.13l6.83,1.08a14.07,14.07,0,0,1,3.44.88c-4.77-.26-9.56.09-14.68-1.23a6,6,0,0,0,2.94,1.33c.37.1.78.28.75.7,0,.68-.61.55-1,.45-.71-.16-1.35-.24-1.65.62a10.43,10.43,0,0,0-1.53-.86c-.74-.28-1.77-.19-1.86-1.26s1-1.14,1.45-1.86,1.24-.17,1.88-.17c1.12,0,1.38-.8,1.53-1.59s-.34-1.38-1.24-1.49a11.1,11.1,0,0,1-2-.35c-1.49-.48-3.59,0-3.88-2.46-.06-.5-.69-.46-1,0s-.53,1.06-.86,1.55c-1.06,1.55-2.62,3.14.55,4.14.08,0,.06.37.13.81-2-1.23-3-.17-3.88,1.3-.26.44-.58.86-.87,1.29s-1.13.45-.81,1.13.9.28,1.41.31a2.8,2.8,0,0,0,2.64-1.3c.91.65,1.43,1.78,2.8,1.89a3.79,3.79,0,0,1,3,1.75,2.92,2.92,0,0,0,2.73,1c.35-2.49-1.58-2.56-3.51-2.88,1.49-.82,2.63-.41,3.71-.55,3,.81,6.15.65,9.57,2-2.42.65-4.23-.43-6.11-.07,2.19.48,4.23,1.3,6.69.89,3.48-.57,7-1.72,10.64-.32,1.54.59,3.5.1,5.79.1-1.13,1.23-2.06.42-2.85.74.26.79,1.34.46,1.85,1.81-4.47-1.41-8.68-2.54-13.11-1.18,1.31.49,2.82.72,3.2,2.36L417,273l.33.33.1.58,1.23.38c.53.69,1.63.74,2,1.85-1.73.49-3.1-1-4.72-.72-.47.07-1.21-.69-1.43.2-.28,1.1.79.84,1.34.93,3.5.62,7,1.17,10.53,1.77a2.38,2.38,0,0,1,1.86,1c-1.83.27-3.36-.35-4.93-.5-.68-.07-1.8-.4-1.87.56s1.12.68,1.77.9c.85.28,2.1-.83,2.77,1-1.39-.6-2.22,1.33-3.72.11-1-.83-2.77-.62-3.35-2.34-1,2-2.57,2.22-4.57,1-.56-.35-1.1-.76-1.68-1.07a.84.84,0,0,0-1,.11c-.33.36-.13.67.2.92.18.14.45.25.5.43.44,1.62.43,1.68,2.27,1.56s3.23,1,4.85,1.53c3.85,1.16,7.58,2.71,11.49,3.69a3.4,3.4,0,0,1,1.5.94c-2.09.5-3.84-1-5.9-1-.37,1,.84,2.93-.71,3.08-2.21.21-5,.73-5.87-2.63,1.31-.25,2.34,1.07,3.67,1.13.58,0,1.36.83,1.68-.18a1.52,1.52,0,0,0-.84-1.9c-2.84-.89-5.71-1.71-8.61-2.4-.86-.2-1.06.73-1,1.41a3.84,3.84,0,0,0,1.94,3.33c3,1.42,5.83,3.17,9,4a12.87,12.87,0,0,1,5.54,3.41c-.57,1.13-1.84-.57-2.08.77-.17.95.66,1.4,1.34,1.88a3.17,3.17,0,0,1,1.11,1.06c1.26,2.75,3.87,2.91,6.26,3,3.48.19,6.82,1.11,10.44,1.36-.69,1.14-1.7.36-2.36,1,1.41.5,2.75.74,4.09-.37.57,1.59-1.7,1.66-1.19,3,.43,1.11,1.84,1.18,2.6,2.54a36.36,36.36,0,0,1-5.76-1.31c-.92-.37-2.1-1.23-2.69.6-.39,1.2-.86-.19-1.38-.07a10.2,10.2,0,0,1-4.26-.34c1.38.84,3,1.26,2.89,3.46,0,.91,1.87.66,2.48,1.62-.46,1-1.39,0-2,.48.39.66,1.1.73,1.71.94s1.44,1,2.24.19-.29-1.24-.57-1.82-.06-1,.34-1.58c1.32,2,3.89,2.47,5.3,4.4-.22.15-.27.23-.34.23-1.1.07-2.66-1.38-3.14,0-.35,1,1.61,1.41,2.57,2,2.39,1.56,5,1.62,7.7,1.19,1.27-.2,1.43,1.56,2.51,2.05.67.3.48,1.52,1.34,2.12.6.41-.32.8-.7,1.05-.54.35-1.23.57-1.33-.38-.18-1.78-1.81-1.08-2.7-1.59-.49-.27-.77.62-.55,1.11a10.33,10.33,0,0,0,1.07,1.61c-.34.5-.83-.35-1.24.29,1.62,1,2.94,2.22,3.24,4.39a4.5,4.5,0,0,0,2.15,3c.38.23.77.6.6,1.09s-.87.63-1.34.59a3.58,3.58,0,0,1-2.44-1.41c-3.66-4.35-8.39-7.58-12.2-11.77a4.11,4.11,0,0,0-3.05-1.17l-.78-.78m-42.6-41.24c-1.27.07-.68.79-.25,1.06,1.59,1,2.75,2.62,4.79,3.11s3.28,2.58,5.44,3c.25.05.33.91.91.67s.22-.77.18-1.18a5.31,5.31,0,0,0-5.63-4.66c-.62.07-1.11,0-1.29-.57-.58-1.73-1.86-1.66-3.26-1.38a.56.56,0,0,0-.89-.08M363.08,311.6c.57.12,1-.31,1.42-.72a13.69,13.69,0,0,0,2.35-3.23c.52-.85,1.14-1.75-.65-1.95-1-.11-.91-.66-.43-1.43.74-1.18-.19-2.39-.83-2.89-.84-.64-1.1.81-1.63,1.33a2.76,2.76,0,0,0-.73,1.11c-.54,1.83-2.49,2.77-2.49,5.19,0,2.06-.72,2.06,1.55,2.38l1.43.21M396,310.09c-.53-.1-.75.11-.77.43a1.61,1.61,0,0,0,.91,1.66c.51.22,1.15,0,1.31.86.78,4.06,3.53,7,5.64,10.39,1,1.64,2.39.79,3.29.32,1.36-.72-.17-1.4-.46-2.07a8,8,0,0,0-1.2-2.11c-2.44-2.85-5.57-5.08-7.56-8.34a6,6,0,0,0-1.15-1.13m34.95-2.67c2.39-.08,4.68-.1,6.77-1,0,0,.14.06.21.07a29.2,29.2,0,0,1,8,1.89c.67.25,1.63.5,1.84-.53.16-.79-.66-1.06-1.31-1.27a6.13,6.13,0,0,0-3.08-.31,3.62,3.62,0,0,1-2.19-.16c-2-.89-4.39-.46-6.36-1.68a2,2,0,0,0-1.72-.07c-1.73,1.06-2.31.33-2.29-1.55-1.76,2-.36,3.54.13,4.66m-34.37-35.86a4.78,4.78,0,0,0,2.43.82c1.16.23,2.81,0,3.43.49,2.24,1.71,4.82,1.89,7.34,2.48.64.15,1.06-.06,1-.75,0-.86.69-1.81-.06-2.56s-1.34.07-2,.35c-.24.1-.58,0-.87,0-3.75.16-7.39-1.08-11.31-.8"/><path d="M285,234.71a16.65,16.65,0,0,1,7.09-3.73,33.27,33.27,0,0,1,8.54-1.49c1.08,0,3-.34,2.94.58-.11,1.11.46,2.74-.91,3.65-.09.06-.11.23-.18.39,1,.37,2.06.31,3,1.11-.43.74-2.29.45-1.61,2a2.37,2.37,0,0,1-.81.26A144.07,144.07,0,0,1,285,234.71"/><path d="M434,323.61c.18-.87-.66-1.74.3-2s1,.91,1.5,1.37c1.45,1.32,2.63,3.32,5.15,2.3.5-.2,1.07.08,1,.51-.12,1.77,1.2,2.19,2.38,2.77.78.38,1.47.89,1.27,1.85s-1,1.25-1.83,1.42-1-.72-1.39-1.15a15.13,15.13,0,0,0-4.65-3.28,7.37,7.37,0,0,1-2.69-1.49c-.73-.75-1.75-1.28-1.07-2.3"/><path d="M441.22,320.9l.78.78a31.33,31.33,0,0,0,4.6,6,6.38,6.38,0,0,1,2.14,4.31,1.73,1.73,0,0,1-1.87-1.22c-.06-2.35-2.59-2.94-3.22-4.87a4,4,0,0,0-1.87-1.85c-1.67-.93-2-2.42-2.23-4.08,1-.31,1.15.64,1.66,1"/><path d="M402.66,145.4a4.33,4.33,0,0,0-1.82,2.22c-.35-1.55-.18-2.88,1.5-3.57a1.66,1.66,0,0,0,.32,1.34"/><path d="M418.69,274.31l-1.23-.38c.3-.29.53-.81,1-.59s.24.62.2,1"/><polygon points="528.11 423.95 537.44 415.75 537.9 400.11 540.71 375.62 534.41 309.16 542.56 236.56 542.56 232.32 540.19 230.22 537.88 227.38 540.08 219.61 538.09 218.56 542.56 172.23 540.71 141.19 541.71 120.27 545.34 107.09 543.65 104.57 543.51 100.23 541.13 90.28 542.56 69.13 542.46 39.26 538.89 35.09 535.25 35.09 536.65 43.35 534.27 42.52 535.39 54.98 536.65 58.2 534.55 59.47 535.53 94.06 532.17 120.26 533.12 159.08 530.75 163.54 531.53 249.19 528.11 320.43 526.74 379.4 528.11 423.95"/><polygon points="221.42 460.93 230.83 439.18 228.46 406.72 233.19 369.6 231.33 359.79 233.19 310.95 235.49 303.34 231.47 299.28 234.84 250.07 234.29 215.23 232.48 213.69 236.35 195.76 233.91 135.81 236.35 133.84 233.63 79.92 236.35 82.3 236.35 68.85 237.79 61.84 233.34 48.26 229.61 49.94 229.61 56.14 226.74 56.94 228.6 107.37 225.08 108.63 226.02 156.12 226.45 160.32 224.29 163.96 222.43 233.58 225.08 238.06 227.45 276.02 224.44 272.8 218.7 341.44 222 355.73 218.7 388.65 222.72 428.99 218.7 430.53 217.84 450.56 221.42 460.93"/><polygon points="190.24 393.49 201.16 399.15 260 393.49 283.53 400.83 434.33 393.49 484.82 404.19 481.46 396.63 587.78 404.19 576.01 398.84 579.79 388.23 535.76 391.57 504.15 386.15 404.33 387.98 343.2 382.34 289.74 386.23 213.06 387.04 190.24 393.49"/><polygon points="583.16 89.39 552.06 83.97 488.6 88.41 431.03 83.48 360.28 82.14 305.8 92.84 272.61 89.89 190.24 98.83 202.01 92.55 212.09 77.07 253.14 83.44 313.37 83.48 377.24 72.63 456.67 78.87 497.84 77.87 564.97 78.7 583.16 89.39"/><path d="M317.93,562.15a7.88,7.88,0,0,1,.18,2.5,29,29,0,0,1-.27,4.11.26.26,0,0,0-.09.18.26.26,0,0,1-.09.18l-.27.27a8.55,8.55,0,0,1-2.86,1.52,28.08,28.08,0,0,1-8.85,1.25,18,18,0,0,1-12.78-4.83,16.66,16.66,0,0,1,0-24.49,17.88,17.88,0,0,1,12.78-4.91,25.85,25.85,0,0,1,8.85,1.34,8.6,8.6,0,0,1,2.86,1.52l.27.27a.27.27,0,0,1,.09.18.25.25,0,0,0,.09.18,29.77,29.77,0,0,1,.27,4.2,7.36,7.36,0,0,1-.18,2.41h-.18a8.29,8.29,0,0,0-1.74-3.22,13.06,13.06,0,0,0-5.23-3.66,12.62,12.62,0,0,0-5.27-1,11.75,11.75,0,0,0-9,3.76q-3.76,3.93-3.76,10.9v.54q0,7.06,3.76,10.9a11.89,11.89,0,0,0,9,3.66,12.53,12.53,0,0,0,5.27-.89,13.29,13.29,0,0,0,5.23-3.62,7.81,7.81,0,0,0,1.74-3.26Z"/><path d="M329.24,572q2.32-.45,2.68-3.58v-.27a1.46,1.46,0,0,0,.09-.71V544q0-4-2.86-4.56l12.78-.18a12.56,12.56,0,0,1,6.7,1.79,6.47,6.47,0,0,1,3,5.81q0,5.1-6.43,8.67a1.55,1.55,0,0,0-.89.45c3.1,4.53,6.11,8.35,8.42,11.13a27.46,27.46,0,0,0,5.39,5h-5.57s-2.64-3.17-4-4.74c-3.58-4.53-6.7-7.77-8.91-10.45a16.21,16.21,0,0,0-3.4.27l.09,10.28q0,4,2.86,4.56Zm17.34-24.76q0-3.31-1.7-4.74a8.12,8.12,0,0,0-5.36-1.52q-2.95,0-3,.89v.53l-.18,12.42h2.06q4.29,0,6.25-2.19a7.8,7.8,0,0,0,2-5.41"/><path d="M373.48,572h-6.17v-.09a2.66,2.66,0,0,0,1.83-1.12l1.39-1.92a48.68,48.68,0,0,0,3.48-6.79q1.43-3,2.46-5.32t1.74-4q3.75-9.12,6.43-16.35,3.4,8.13,6.75,15.86t6.75,15.15a8.77,8.77,0,0,0,2,3.17,4.46,4.46,0,0,0,2.5,1.3v.18h-7.86q-1.16-2.86-2-5.09t-1.48-3.84H376.7Zm16.8-11.17q-.08-.18-1.65-4t-4.69-11.31l-6.43,15.64h13Z"/><path d="M440.32,539.09q-.09,2.41-.09,4.43v3.71H440a21,21,0,0,0-3.84-4.56q-2-1.43-6.88-1.43h-1.88c-.6.06-1,.21-1.07.45a.72.72,0,0,0-.09.45v25.11a4,4,0,0,0,.71,2.41,5.69,5.69,0,0,0,3,2.05l.09.09a2.39,2.39,0,0,1-1.25.18,95.34,95.34,0,0,0-10.19,0,1.39,1.39,0,0,1-1-.27,4.49,4.49,0,0,0,2.9-1.21,3.81,3.81,0,0,0,1.3-2.64V542.13a.85.85,0,0,0-.54-.8H418.6q-4.92,0-6.88,1.43a20.71,20.71,0,0,0-3.84,4.56h-.27V543.6q0-2-.09-4.42l14,.09Z"/><path d="M473.61,572.24a4,4,0,0,1-1.07.09q-3.93-.27-9.92-.27h-5.14q-2.91,0-6.66.09,2.86-.44,2.86-4.56V544.27q0-4.11-2.86-4.56v-.09h9.3c1.31,0,2.55,0,3.71,0s2.28-.07,3.35-.14h.36c.77,0,1.5,0,2.19,0s1.35-.07,2-.13c1.07-.06,1.61,0,1.61.27v5.18a2.52,2.52,0,0,0-1.83-2.05,27.22,27.22,0,0,0-6.39-1q-1.07-.09-2.55-.09h-3.35a1.55,1.55,0,0,0-1.07.27,1.79,1.79,0,0,0-.09.8v10.46q0,.54.71.54h3q2.37,0,6.57.09a4.1,4.1,0,0,0,3-.94,3.81,3.81,0,0,0,1.12-2.19h.09q-.09,2,0,8.22Q472,556,468,556q-1.61-.09-4-.13t-5.5,0c-.3,0-.45.12-.45.36v10.91q0,2.32,2.68,2.86.45.09,4.65.09a12.65,12.65,0,0,0,3.22-.36,13.49,13.49,0,0,0,4.56-1.88,5.16,5.16,0,0,0,1.88-2.32l-1,6.52-.09.36Z"/><path d="M264.08,524.26l-1.6-1.09,10.58-22.89-1.62-1.58,8.77-16.78,3-5.44L289.37,461l.48-.76,3.4.56a11.23,11.23,0,0,0-.65,1.58c2.08,5.09,6.06,14.95,6.06,14.95l8,14.31a112.84,112.84,0,0,0,5.62,15.55,152.69,152.69,0,0,0,8.43,14.87h-.87l-1.34,2.17Zm9-7.64,2.67-.09,29-1,4.69,1.09-3.56-4.6-7.34-22.48-7.23-15.74-4.72,11.06-.59-1.53-2.07,7.78Z"/><path d="M334.59,484.57,335,498s4.28,12.36,5.89,14.18,9.59,6.27,9.59,6.27l1.92-1.13,10.83-.82,11.31-12.06-1.69.46,2-11,.45-20.14-1.13-13.53,6.32-.39-.45,5.37,2.26,14.88-1.08,18.78-2.08,10.67-6.66,5.82-7.43,8-7,.89-13.49-1-8.39-5.66,1.33-.93-7.46-14.76-2.6-28.05,1-12.54,2.32-2.47,6,.81L335,465.48Z"/><path d="M421.63,459.88,440,472.51l.41,14.18-3.12,5.73-11,7.46,9,12.75,4.45,11.63H433l-3-6.81-12.58-17H401.12l.3,18.56-.7,5.3-6.07-1.39L396,505.55l-1.43-13.22,10.17.69H413L404,476.18l.09-1.49-9.7-12.75.19-2.06Zm-14.75,7.37,1.85,2,2.18,5.5L422.24,493l8.18-4.27-.08,1.88,2.76-5.88,1.37-6.72-6.69-7.88L421.46,466l-12,2Z"/><path d="M452.08,524.26l2.13-10.35.46,1.51,14.69-31.18,8-23.23,1.28-1.85,2.56.38.29,2.55,6.38,14.35,1.57-1.23,3,10.86,15.36,36.07,0,0-1.34,2.17-14.53-1.84Zm9-7.64,30.89-1.13,1.51,1.13h4L480,478.74l-.72-4.93-2.14,6.74Z"/></svg>